<svg viewBox="0 0 81 81" version="1.1" xmlns="http://www.w3.org/2000/svg" xmlns:xlink="http://www.w3.org/1999/xlink">
    <title>Highchairs</title>
    <defs>
        <linearGradient x1="50%" y1="66.4161392%" x2="50%" y2="0%" id="linearGradient-1" class="lg">
            <stop stop-color="#FFFFFF" stop-opacity="0.164713542" offset="0%"></stop>
            <stop stop-color="#7495FF" stop-opacity="0.164713542" offset="100%"></stop>
        </linearGradient>
        <polygon id="path-2" points="7.91082932e-05 56.1841847 38.0661987 56.1841847 38.0661987 -0.000156398005 7.91082932e-05 -0.000156398005"></polygon>
    </defs>
    <g id="Page-1" stroke="none" stroke-width="1" fill="none" fill-rule="evenodd">
        <g id="FINAL-HOME-PAGE-and-CITY-PAGE" transform="translate(-126.000000, -545.000000)">
            <g id="Icon-Filters" transform="translate(85.000000, 546.000000)">
                <g id="Highchairs-Icon" transform="translate(42.000000, 0.000000)">
                    <circle id="Oval-4" stroke="#7495FF" stroke-width="2" fill="url(#linearGradient-1)" cx="39.5" cy="39.5" r="39.5"></circle>
                    <g id="HIGHCHAIR" transform="translate(20.000000, 10.000000)">
                        <mask id="mask-3" fill="white">
                            <use xlink:href="#path-2"></use>
                        </mask>
                        <g id="Clip-2"></g>
                        <path d="M36.0718786,16.9690271 C36.0718786,17.5031263 35.6320365,17.9379128 35.0917269,17.9379128 L19.7803167,17.9379128 L19.7803167,15.8570373 L36.0718786,15.8570373 L36.0718786,16.9690271 Z M30.4710115,29.9336398 L7.09530193,29.9336398 L7.87610078,19.9100916 L18.7234299,19.9100916 C18.7439981,19.9108736 18.7614019,19.9218215 18.7827612,19.9218215 C18.8041204,19.9218215 18.8215242,19.9108736 18.8420924,19.9100916 L29.6902126,19.9100916 L30.4710115,29.9336398 Z M1.99439918,16.9690271 L1.99439918,15.8570373 L17.7852056,15.8570373 L17.7852056,17.9379128 L2.97455093,17.9379128 C2.43424129,17.9379128 1.99439918,17.5031263 1.99439918,16.9690271 L1.99439918,16.9690271 Z M1.99519026,13.8848585 L5.95535142,13.8848585 L5.95535142,7.75014674 L1.99519026,7.75014674 L1.99519026,13.8848585 Z M13.5893017,1.97202244 L23.9770117,1.97202244 C26.4610121,1.97202244 28.5708303,3.56962807 29.3207769,5.7779679 L8.24553651,5.7779679 C8.99548313,3.56962807 11.1053013,1.97202244 13.5893017,1.97202244 L13.5893017,1.97202244 Z M19.7803167,13.8848585 L29.6166419,13.8848585 L29.6166419,7.75014674 L19.7803167,7.75014674 L19.7803167,13.8848585 Z M7.94967149,13.8848585 L17.7852056,13.8848585 L17.7852056,7.75014674 L7.94967149,7.75014674 L7.94967149,13.8848585 Z M31.610962,13.8848585 L36.0718786,13.8848585 L36.0718786,7.75014674 L31.610962,7.75014674 L31.610962,13.8848585 Z M38.0661987,6.76405732 C38.0661987,6.21979226 37.6200279,5.7779679 37.0694342,5.7779679 L31.3902499,5.7779679 C30.5825542,2.4693681 27.5693193,-0.000156398005 23.9770117,-0.000156398005 L13.5893017,-0.000156398005 C9.99620304,-0.000156398005 6.97743057,2.46780412 6.17052598,5.7779679 L0.997634686,5.7779679 C0.446249882,5.7779679 7.91082932e-05,6.21979226 7.91082932e-05,6.76405732 L7.91082932e-05,14.8709479 L7.91082932e-05,16.9690271 C7.91082932e-05,18.5908745 1.33463601,19.9100916 2.97455093,19.9100916 L5.87545204,19.9100916 L3.13197644,55.1231024 C3.09004904,55.6658035 3.50062108,56.1389075 4.04963264,56.1811349 C4.07573837,56.1834809 4.10184411,56.1842629 4.12794985,56.1842629 C4.64373592,56.1842629 5.0804137,55.7909219 5.12075893,55.2740265 L6.94104075,31.9050366 L30.6244816,31.9050366 L32.4455545,55.2740265 C32.4851086,55.7909219 32.9225775,56.1842629 33.4383636,56.1842629 C33.4644693,56.1842629 33.489784,56.1834809 33.5158897,56.1811349 C34.0649012,56.1389075 34.4762644,55.6658035 34.4335459,55.1231024 L32.5531418,30.9830704 C32.5547239,30.9603927 32.5657991,30.9416249 32.5657991,30.9189472 C32.5657991,30.8688998 32.5444398,30.8251084 32.5373201,30.777407 L31.6900703,19.9100916 L35.0917269,19.9100916 C36.7316418,19.9100916 38.0661987,18.5908745 38.0661987,16.9690271 L38.0661987,14.8709479 C38.0661987,14.7434835 38.0377197,14.6230571 37.9934191,14.5112325 C38.0377197,14.3994079 38.0661987,14.2797634 38.0661987,14.1522991 L38.0661987,6.76405732 Z" id="Fill-1" fill="#7495FF" mask="url(#mask-3)"></path>
                    </g>
                </g>
            </g>
        </g>
    </g>
</svg>
