
<svg width="81px" height="81px" viewBox="0 0 81 81" version="1.1" xmlns="http://www.w3.org/2000/svg" xmlns:xlink="http://www.w3.org/1999/xlink">
    <!-- Generator: Sketch 46.2 (44496) - http://www.bohemiancoding.com/sketch -->
    <desc>Created with Sketch.</desc>
    <defs>
        <linearGradient x1="50%" y1="66.4161392%" x2="50%" y2="0%" id="linearGradient-1">
            <stop stop-color="#FFFFFF" stop-opacity="0.164713542" offset="0%"></stop>
            <stop stop-color="#7495FF" stop-opacity="0.164713542" offset="100%"></stop>
        </linearGradient>
        <polygon id="path-2" points="0 49.357 0 0.0004 50.09 0.0004 50.09 49.357"></polygon>
    </defs>
    <g id="Page-1" stroke="none" stroke-width="1" fill="none" fill-rule="evenodd">
        <g id="FINAL-HOME-PAGE-and-CITY-PAGE" transform="translate(-658.000000, -545.000000)">
            <g id="Icon-Filters" transform="translate(85.000000, 546.000000)">
                <circle id="Oval-4-Copy-3" stroke="#7495FF" stroke-width="2" fill="url(#linearGradient-1)" cx="613.5" cy="39.5" r="39.5"></circle>
                <g id="Page-1" transform="translate(588.000000, 15.000000)">
                    <mask id="mask-3" >
                        <use xlink:href="#path-2"></use>
                    </mask>
                    <g id="Clip-2"></g>
                    <path d="M25.0455,37.524 C17.5555,37.524 11.4615,31.43 11.4615,23.94 C11.4615,16.449 17.5555,10.355 25.0455,10.355 C32.5355,10.355 38.6295,16.449 38.6295,23.94 C38.6295,31.43 32.5355,37.524 25.0455,37.524 M49.3485,27.313 L40.3185,25.721 C40.3865,25.136 40.4255,24.542 40.4255,23.94 C40.4255,21.461 39.8325,19.119 38.7855,17.043 L46.7295,12.457 C47.1585,12.209 47.3055,11.66 47.0575,11.23 C46.8105,10.801 46.2615,10.654 45.8315,10.902 L37.8865,15.489 C36.2445,13.002 33.9015,11.018 31.1395,9.821 L34.2755,1.205 C34.4455,0.739 34.2055,0.224 33.7395,0.054 C33.2735,-0.115 32.7595,0.124 32.5885,0.591 L29.4525,9.207 C28.0555,8.788 26.5775,8.56 25.0455,8.56 C23.5135,8.56 22.0355,8.788 20.6385,9.207 L17.5025,0.591 C17.3325,0.124 16.8175,-0.115 16.3515,0.054 C15.8855,0.224 15.6455,0.739 15.8155,1.205 L18.9515,9.821 C16.1895,11.018 13.8465,13.002 12.2045,15.489 L4.2595,10.902 C3.8275,10.654 3.2805,10.801 3.0325,11.23 C2.7845,11.66 2.9315,12.209 3.3605,12.457 L11.3045,17.043 C10.2585,19.119 9.6655,21.461 9.6655,23.94 C9.6655,24.542 9.7045,25.136 9.7725,25.721 L0.7415,27.313 C0.2535,27.4 -0.0725,27.865 0.0135,28.353 C0.0905,28.789 0.4695,29.095 0.8965,29.095 C0.9485,29.095 1.0005,29.091 1.0535,29.081 L10.0835,27.489 C10.7875,30.454 12.3505,33.089 14.4955,35.115 L8.5965,42.146 C8.2775,42.526 8.3275,43.092 8.7065,43.411 C8.8755,43.552 9.0795,43.621 9.2835,43.621 C9.5395,43.621 9.7945,43.511 9.9715,43.3 L15.8685,36.273 C18.2065,38.018 21.0565,39.112 24.1475,39.291 L24.1475,48.46 C24.1475,48.956 24.5495,49.357 25.0455,49.357 C25.5415,49.357 25.9435,48.956 25.9435,48.46 L25.9435,39.291 C29.0345,39.112 31.8835,38.018 34.2225,36.273 L40.1195,43.3 C40.2965,43.511 40.5515,43.621 40.8075,43.621 C41.0115,43.621 41.2155,43.552 41.3845,43.411 C41.7635,43.092 41.8135,42.526 41.4945,42.146 L35.5945,35.115 C37.7405,33.089 39.3035,30.455 40.0075,27.489 L49.0375,29.081 C49.0895,29.091 49.1425,29.095 49.1945,29.095 C49.6215,29.095 49.9995,28.789 50.0765,28.353 C50.1625,27.865 49.8365,27.4 49.3485,27.313" id="Fill-1" fill="#7495FF" mask="url(#mask-3)"></path>
                </g>
            </g>
        </g>
    </g>
</svg>