<svg width="24px" height="24px" viewBox="0 0 24 24" version="1.1" xmlns="http://www.w3.org/2000/svg" xmlns:xlink="http://www.w3.org/1999/xlink">
    <title>Directions</title>
    <g stroke="none" stroke-width="1" fill="none" fill-rule="evenodd">
        <g transform="translate(-999.000000, -1064.000000)" fill="#7495FF">
            <g transform="translate(966.000000, 337.000000)">
                <g transform="translate(3.000000, 714.000000)">
                    <path d="M53.6489126,24.1537887 L42.8462116,13.3510878 C42.3780942,12.8829707 41.621905,12.8829707 41.1537887,13.3510878 L30.3510878,24.1537887 C29.8829707,24.6219062 29.8829707,25.3780942 30.3510878,25.8462117 L41.1537887,36.6489137 C41.6219061,37.1170301 42.3780953,37.1170301 42.8462116,36.6489137 L53.6489126,25.8462128 C54.1170289,25.3900986 54.1170289,24.6339094 53.6489126,24.1537899 L53.6489126,24.1537887 Z M44.3945999,28.0067521 L44.3945999,25.0060019 L39.5933995,25.0060019 L39.5933995,28.6069022 L37.1927993,28.6069022 L37.1927993,23.8057018 C37.1927993,23.1455365 37.7329341,22.6054016 38.3930994,22.6054016 L44.3945999,22.6054016 L44.3945999,19.6046514 L48.5956503,23.8057018 L44.3945999,28.0067521 Z" id="Fill-2"></path>
                </g>
            </g>
        </g>
    </g>
</svg>
