<svg viewBox="0 0 20 19" version="1.1" xmlns="http://www.w3.org/2000/svg" xmlns:xlink="http://www.w3.org/1999/xlink">
    <title>Find a Table</title>
    <g stroke="none" stroke-width="1" fill="none" fill-rule="evenodd">
        <g class="icon" transform="translate(-999.000000, -942.000000)" fill="#7495FF">
            <g transform="translate(966.000000, 337.000000)">
                <g transform="translate(3.000000, 588.000000)">
                    <path d="M35.3599999,27.2066555 L38.1899997,24.3766558 L31.1699999,17.366656 C29.61,18.9266558 29.61,21.4566559 31.1699999,23.0266555 L35.3599999,27.2066555 Z M42.1399992,25.3966561 C43.6699989,26.1066562 45.8199983,25.6066562 47.4099984,24.0166561 C49.3199981,22.1066564 49.689999,19.3666563 48.2199978,17.8966566 C46.7599989,16.4366567 44.0199973,16.7966568 42.0999982,18.7066565 C40.5099982,20.2966566 40.0099983,22.4466565 40.7199982,23.9766562 L30.9599999,33.7366558 L32.3699999,35.1466555 L39.2599993,28.2766551 L46.1399999,35.1566558 L47.5499997,33.746656 L40.669999,26.8666554 L42.1399992,25.3966552 L42.1399992,25.3966561 Z" id="Fill-2"></path>
                </g>
            </g>
        </g>
    </g>
</svg>
