<svg width="18px" height="18px" viewBox="0 0 18 18" version="1.1" xmlns="http://www.w3.org/2000/svg" xmlns:xlink="http://www.w3.org/1999/xlink">
    <title>Search</title>
    <g stroke="none" stroke-width="1" fill="none" fill-rule="evenodd">
        <g transform="translate(-395.000000, -31.000000)" fill="#7495FF">
             <g transform="translate(35.000000, 30.000000)">
                 <path d="M372.499999,11.9999993 L371.709999,11.9999993 L371.43,11.7299989 C372.409999,10.5899995 372.999999,9.10999911 372.999999,7.49999961 C372.999999,3.90999967 370.089999,1 366.5,1 C362.91,1 360,3.90999967 360,7.49999961 C360,11.0899995 362.91,13.9999992 366.5,13.9999992 C368.109999,13.9999992 369.59,13.4099991 370.729999,12.4299996 L370.999999,12.7099993 L370.999999,13.4999993 L375.999999,18.4899987 L377.489999,16.999999 L372.499999,11.9999993 Z M366.5,11.9999993 C364.01,11.9999993 362,9.98999916 362,7.49999961 C362,5.00999998 364.01,2.99999988 366.5,2.99999988 C368.989999,2.99999988 370.999999,5.00999998 370.999999,7.49999961 C370.999999,9.98999916 368.989999,11.9999993 366.5,11.9999993 Z" id="Fill-2"></path>
             </g>
        </g>
    </g>
</svg>
