<svg width="1382px" height="10px" viewBox="0 0 1382 10" version="1.1" xmlns="http://www.w3.org/2000/svg" xmlns:xlink="http://www.w3.org/1999/xlink">
    <title>Divider Squiggle 2</title>
    <g stroke="none" stroke-width="1" fill="none" fill-rule="evenodd">
        <g transform="translate(-30.000000, -1896.000000)" stroke="#B5F8E9" stroke-width="2">
            <g transform="translate(33.000000, 1897.000000)">
                <path d="M23.0005158,8 C17.2503869,8 15.3336772,4 15.3336772,4 C15.3336772,4 13.4169676,-2.27373675e-13 7.66683861,-2.27373675e-13 L0,4 C0,4 1.91670965,-2.27373675e-13 7.66683861,-2.27373675e-13 C13.4169676,-2.27373675e-13 15.3336772,4 15.3336772,4 C15.3336772,4 17.2503869,8 23.0005158,8 C28.7506448,8 30.6673545,4 30.6673545,4 C30.6673545,4 32.5840641,-2.27373675e-13 38.3341931,-2.27373675e-13 C44.084322,-2.27373675e-13 46.0010317,4 46.0010317,4 C46.0010317,4 47.9177413,8 53.6678703,8 C59.4179993,8 61.3347089,4 61.3347089,4 C61.3347089,4 63.2514186,-2.27373675e-13 69.0015475,-2.27373675e-13 C74.7516765,-2.27373675e-13 76.6683861,4 76.6683861,4 C76.6683861,4 78.5850958,8 84.3352248,8 C90.0853537,8 92.0020634,4 92.0020634,4 C92.0020634,4 93.918773,-2.27373675e-13 99.668902,-2.27373675e-13 C105.419031,-2.27373675e-13 107.335741,4 107.335741,4 C107.335741,4 109.25245,8 115.002579,8 C120.752708,8 122.669418,4 122.669418,4 C122.669418,4 124.586127,-2.27373675e-13 130.336256,-2.27373675e-13 C136.086385,-2.27373675e-13 138.003095,4 138.003095,4 C138.003095,4 139.919805,8 145.669934,8 C151.420063,8 153.336772,4 153.336772,4 C153.336772,4 155.253482,-2.27373675e-13 161.003611,-2.27373675e-13 C166.75374,-2.27373675e-13 168.67045,4 168.67045,4 C168.67045,4 170.587159,8 176.337288,8 C182.087417,8 184.004127,4 184.004127,4 C184.004127,4 185.920836,-2.27373675e-13 191.670965,-2.27373675e-13 C197.421094,-2.27373675e-13 199.337804,4 199.337804,4 C199.337804,4 201.254514,8 207.004643,8 C212.754772,8 214.671481,4 214.671481,4 C214.671481,4 216.588191,-2.27373675e-13 222.33832,-2.27373675e-13 C228.088449,-2.27373675e-13 230.005158,4 230.005158,4 C230.005158,4 231.921868,8 237.671997,8 C243.422126,8 245.338836,4 245.338836,4 C245.338836,4 247.255545,-2.27373675e-13 253.005674,-2.27373675e-13 C258.755803,-2.27373675e-13 260.672513,4 260.672513,4 C260.672513,4 262.589223,8 268.339352,8 C274.08948,8 276.00619,4 276.00619,4 C276.00619,4 277.9229,-2.27373675e-13 283.673029,-2.27373675e-13 C289.423158,-2.27373675e-13 291.339867,4 291.339867,4 C291.339867,4 293.256577,8 299.006706,8 C304.756835,8 306.673545,4 306.673545,4 C306.673545,4 308.590254,-2.27373675e-13 314.340383,-2.27373675e-13 C320.090512,-2.27373675e-13 322.007222,4 322.007222,4 C322.007222,4 323.923931,8 329.67406,8 C335.424189,8 337.340899,4 337.340899,4 C337.340899,4 339.257609,-2.27373675e-13 345.007738,-2.27373675e-13 C350.757867,-2.27373675e-13 352.674576,4 352.674576,4 C352.674576,4 354.591286,8 360.341415,8 C366.091544,8 368.008254,4 368.008254,4 C368.008254,4 369.924963,-2.27373675e-13 375.675092,-2.27373675e-13 C381.425221,-2.27373675e-13 383.341931,4 383.341931,4 C383.341931,4 385.25864,8 391.008769,8 C396.758898,8 398.675608,4 398.675608,4 C398.675608,4 400.592318,-2.27373675e-13 406.342447,-2.27373675e-13 C412.092576,-2.27373675e-13 414.009285,4 414.009285,4 C414.009285,4 415.925995,8 421.676124,8 C427.426253,8 429.342962,4 429.342962,4 C429.342962,4 431.259672,-2.27373675e-13 437.009801,-2.27373675e-13 C442.75993,-2.27373675e-13 444.67664,4 444.67664,4 C444.67664,4 446.593349,8 452.343478,8 C458.093607,8 460.010317,4 460.010317,4" id="Page-1" transform="translate(230.005158, 4.000000) scale(1, -1) translate(-230.005158, -4.000000) "></path>
                <path d="M483.010833,8 C477.260704,8 475.343994,4 475.343994,4 C475.343994,4 473.427284,-2.27373675e-13 467.677155,-2.27373675e-13 L460.010317,4 C460.010317,4 461.927027,-2.27373675e-13 467.677155,-2.27373675e-13 C473.427284,-2.27373675e-13 475.343994,4 475.343994,4 C475.343994,4 477.260704,8 483.010833,8 C488.760962,8 490.677671,4 490.677671,4 C490.677671,4 492.594381,-2.27373675e-13 498.34451,-2.27373675e-13 C504.094639,-2.27373675e-13 506.011349,4 506.011349,4 C506.011349,4 507.928058,8 513.678187,8 C519.428316,8 521.345026,4 521.345026,4 C521.345026,4 523.261735,-2.27373675e-13 529.011864,-2.27373675e-13 C534.761993,-2.27373675e-13 536.678703,4 536.678703,4 C536.678703,4 538.595413,8 544.345542,8 C550.095671,8 552.01238,4 552.01238,4 C552.01238,4 553.92909,-2.27373675e-13 559.679219,-2.27373675e-13 C565.429348,-2.27373675e-13 567.346057,4 567.346057,4 C567.346057,4 569.262767,8 575.012896,8 C580.763025,8 582.679735,4 582.679735,4 C582.679735,4 584.596444,-2.27373675e-13 590.346573,-2.27373675e-13 C596.096702,-2.27373675e-13 598.013412,4 598.013412,4 C598.013412,4 599.930122,8 605.680251,8 C611.43038,8 613.347089,4 613.347089,4 C613.347089,4 615.263799,-2.27373675e-13 621.013928,-2.27373675e-13 C626.764057,-2.27373675e-13 628.680766,4 628.680766,4 C628.680766,4 630.597476,8 636.347605,8 C642.097734,8 644.014444,4 644.014444,4 C644.014444,4 645.931153,-2.27373675e-13 651.681282,-2.27373675e-13 C657.431411,-2.27373675e-13 659.348121,4 659.348121,4 C659.348121,4 661.264831,8 667.014959,8 C672.765088,8 674.681798,4 674.681798,4 C674.681798,4 676.598508,-2.27373675e-13 682.348637,-2.27373675e-13 C688.098766,-2.27373675e-13 690.015475,4 690.015475,4 C690.015475,4 691.932185,8 697.682314,8 C703.432443,8 705.349153,4 705.349153,4 C705.349153,4 707.265862,-2.27373675e-13 713.015991,-2.27373675e-13 C718.76612,-2.27373675e-13 720.68283,4 720.68283,4 C720.68283,4 722.599539,8 728.349668,8 C734.099797,8 736.016507,4 736.016507,4 C736.016507,4 737.933217,-2.27373675e-13 743.683346,-2.27373675e-13 C749.433475,-2.27373675e-13 751.350184,4 751.350184,4 C751.350184,4 753.266894,8 759.017023,8 C764.767152,8 766.683861,4 766.683861,4 C766.683861,4 768.600571,-2.27373675e-13 774.3507,-2.27373675e-13 C780.100829,-2.27373675e-13 782.017539,4 782.017539,4 C782.017539,4 783.934248,8 789.684377,8 C795.434506,8 797.351216,4 797.351216,4 C797.351216,4 799.267926,-2.27373675e-13 805.018055,-2.27373675e-13 C810.768183,-2.27373675e-13 812.684893,4 812.684893,4 C812.684893,4 814.601603,8 820.351732,8 C826.101861,8 828.01857,4 828.01857,4 C828.01857,4 829.93528,-2.27373675e-13 835.685409,-2.27373675e-13 C841.435538,-2.27373675e-13 843.352248,4 843.352248,4 C843.352248,4 845.268957,8 851.019086,8 C856.769215,8 858.685925,4 858.685925,4 C858.685925,4 860.602634,-2.27373675e-13 866.352763,-2.27373675e-13 C872.102892,-2.27373675e-13 874.019602,4 874.019602,4 C874.019602,4 875.936312,8 881.686441,8 C887.43657,8 889.353279,4 889.353279,4 C889.353279,4 891.269989,-2.27373675e-13 897.020118,-2.27373675e-13 C902.770247,-2.27373675e-13 904.686957,4 904.686957,4 C904.686957,4 906.603666,8 912.353795,8 C918.103924,8 920.020634,4 920.020634,4" id="Page-1-Copy" transform="translate(690.015475, 4.000000) scale(1, -1) translate(-690.015475, -4.000000) "></path>
                <path d="M940.990199,8 C935.24007,8 933.32336,4 933.32336,4 C933.32336,4 931.406651,-2.27373675e-13 925.656522,-2.27373675e-13 L917.989683,4 C917.989683,4 919.906393,-2.27373675e-13 925.656522,-2.27373675e-13 C931.406651,-2.27373675e-13 933.32336,4 933.32336,4 C933.32336,4 935.24007,8 940.990199,8 C946.740328,8 948.657038,4 948.657038,4 C948.657038,4 950.573747,-2.27373675e-13 956.323876,-2.27373675e-13 C962.074005,-2.27373675e-13 963.990715,4 963.990715,4 C963.990715,4 965.907424,8 971.657553,8 C977.407682,8 979.324392,4 979.324392,4 C979.324392,4 981.241102,-2.27373675e-13 986.991231,-2.27373675e-13 C992.74136,-2.27373675e-13 994.658069,4 994.658069,4 C994.658069,4 996.574779,8 1002.32491,8 C1008.07504,8 1009.99175,4 1009.99175,4 C1009.99175,4 1011.90846,-2.27373675e-13 1017.65859,-2.27373675e-13 C1023.40871,-2.27373675e-13 1025.32542,4 1025.32542,4 C1025.32542,4 1027.24213,8 1032.99226,8 C1038.74239,8 1040.6591,4 1040.6591,4 C1040.6591,4 1042.57581,-2.27373675e-13 1048.32594,-2.27373675e-13 C1054.07607,-2.27373675e-13 1055.99278,4 1055.99278,4 C1055.99278,4 1057.90949,8 1063.65962,8 C1069.40975,8 1071.32646,4 1071.32646,4 C1071.32646,4 1073.24317,-2.27373675e-13 1078.99329,-2.27373675e-13 C1084.74342,-2.27373675e-13 1086.66013,4 1086.66013,4 C1086.66013,4 1088.57684,8 1094.32697,8 C1100.0771,8 1101.99381,4 1101.99381,4 C1101.99381,4 1103.91052,-2.27373675e-13 1109.66065,-2.27373675e-13 C1115.41078,-2.27373675e-13 1117.32749,4 1117.32749,4 C1117.32749,4 1119.2442,8 1124.99433,8 C1130.74445,8 1132.66116,4 1132.66116,4 C1132.66116,4 1134.57787,-2.27373675e-13 1140.328,-2.27373675e-13 C1146.07813,-2.27373675e-13 1147.99484,4 1147.99484,4 C1147.99484,4 1149.91155,8 1155.66168,8 C1161.41181,8 1163.32852,4 1163.32852,4 C1163.32852,4 1165.24523,-2.27373675e-13 1170.99536,-2.27373675e-13 C1176.74549,-2.27373675e-13 1178.6622,4 1178.6622,4 C1178.6622,4 1180.57891,8 1186.32903,8 C1192.07916,8 1193.99587,4 1193.99587,4 C1193.99587,4 1195.91258,-2.27373675e-13 1201.66271,-2.27373675e-13 C1207.41284,-2.27373675e-13 1209.32955,4 1209.32955,4 C1209.32955,4 1211.24626,8 1216.99639,8 C1222.74652,8 1224.66323,4 1224.66323,4 C1224.66323,4 1226.57994,-2.27373675e-13 1232.33007,-2.27373675e-13 C1238.0802,-2.27373675e-13 1239.9969,4 1239.9969,4 C1239.9969,4 1241.91361,8 1247.66374,8 C1253.41387,8 1255.33058,4 1255.33058,4 C1255.33058,4 1257.24729,-2.27373675e-13 1262.99742,-2.27373675e-13 C1268.74755,-2.27373675e-13 1270.66426,4 1270.66426,4 C1270.66426,4 1272.58097,8 1278.3311,8 C1284.08123,8 1285.99794,4 1285.99794,4 C1285.99794,4 1287.91465,-2.27373675e-13 1293.66478,-2.27373675e-13 C1299.4149,-2.27373675e-13 1301.33161,4 1301.33161,4 C1301.33161,4 1303.24832,8 1308.99845,8 C1314.74858,8 1316.66529,4 1316.66529,4 C1316.66529,4 1318.582,-2.27373675e-13 1324.33213,-2.27373675e-13 C1330.08226,-2.27373675e-13 1331.99897,4 1331.99897,4 C1331.99897,4 1333.91568,8 1339.66581,8 C1345.41594,8 1347.33265,4 1347.33265,4 C1347.33265,4 1349.24936,-2.27373675e-13 1354.99948,-2.27373675e-13 C1360.74961,-2.27373675e-13 1362.66632,4 1362.66632,4 C1362.66632,4 1364.58303,8 1370.33316,8 C1376.08329,8 1378,4 1378,4" id="Page-1-Copy-2" transform="translate(1147.994842, 4.000000) scale(1, -1) translate(-1147.994842, -4.000000) "></path>
            </g>
        </g>
    </g>
</svg>
