<svg viewBox="0 0 23 18" version="1.1" xmlns="http://www.w3.org/2000/svg" xmlns:xlink="http://www.w3.org/1999/xlink">
    <title>View Menu</title>
    <g stroke="none" stroke-width="1" fill="none" fill-rule="evenodd">
        <g class="icon" transform="translate(-999.000000, -1005.000000)" fill="#7495FF">
            <g transform="translate(966.000000, 337.000000)">
                <g transform="translate(3.000000, 651.000000)">
                    <path d="M50.9090909,17.5227273 C49.7486356,17.1568183 48.4731818,17 47.25,17 C45.2113637,17 43.0159089,17.4181819 41.5,18.5681818 C39.984091,17.4181819 37.7886362,17 35.75,17 C33.7113638,17 31.5159091,17.4181819 30,18.5681818 L30,33.8840905 C30,34.1454541 30.2613636,34.4068178 30.5227273,34.4068178 C30.6272727,34.4068178 30.6795454,34.3545458 30.7840909,34.3545458 C32.1954544,33.6750007 34.2340911,33.2045455 35.75,33.2045455 C37.7886362,33.2045455 39.984091,33.6227269 41.5,34.7727273 C42.911364,33.8840905 45.4727274,33.2045455 47.25,33.2045455 C48.9749996,33.2045455 50.752273,33.518181 52.2159091,34.3022719 C52.3204549,34.3545438 52.3727269,34.3545438 52.4772727,34.3545438 C52.7386364,34.3545438 53,34.0931801 53,33.8318165 L53,18.5681818 C52.3727269,18.0977275 51.6931818,17.7840909 50.9090909,17.5227273 Z M50.9090909,31.6363636 C49.7590905,31.2704541 48.5045462,31.1136364 47.25,31.1136364 C45.4727274,31.1136364 42.911364,31.7931814 41.5,32.6818182 L41.5,20.6590909 C42.911364,19.7704546 45.4727274,19.0909091 47.25,19.0909091 C48.5045462,19.0909091 49.7590905,19.2477274 50.9090909,19.6136364 L50.9090909,31.6363636 Z" id="Fill-2"></path>
                </g>
            </g>
        </g>
    </g>
</svg>
